<svg width="432" height="354" viewBox="0 0 432 354" fill="none" xmlns="http://www.w3.org/2000/svg">
<g clip-path="url(#clip0_301_4)">
<path d="M106.63 323.015L107.509 341.524L107.509 341.524C107.657 344.653 106.556 347.711 104.447 350.028C102.339 352.345 99.3955 353.73 96.2652 353.879L95.8817 353.897L94.4431 323.593L106.63 323.015Z" fill="#191919"/>
<path d="M41.8553 353.158C63.3014 353.158 80.6868 335.784 80.6868 314.352C80.6868 292.92 63.3014 275.546 41.8553 275.546C20.4093 275.546 3.02388 292.92 3.02388 314.352C3.02388 335.784 20.4093 353.158 41.8553 353.158Z" fill="#559FFF"/>
<path d="M57.4099 298.067H26.3007C24.9261 298.069 23.6082 298.615 22.6362 299.587C21.6642 300.558 21.1174 301.875 21.1159 303.249V325.455C21.1174 326.829 21.6642 328.146 22.6362 329.117C23.6082 330.088 24.9261 330.635 26.3007 330.636H57.41C58.7846 330.635 60.1025 330.088 61.0745 329.117C62.0466 328.146 62.5933 326.829 62.5949 325.455V303.249C62.5933 301.875 62.0465 300.558 61.0745 299.587C60.1025 298.615 58.7846 298.069 57.4099 298.067V298.067ZM57.4099 301.028C57.5957 301.029 57.7806 301.053 57.9602 301.1L41.8589 313.936L25.8518 301.074C25.9995 301.043 26.1499 301.028 26.3007 301.028H57.4099ZM57.4099 327.676H26.3007C25.7116 327.675 25.1468 327.441 24.7302 327.024C24.3137 326.608 24.0793 326.044 24.0787 325.455V303.448L40.9271 316.986C41.1895 317.197 41.5159 317.312 41.8525 317.313C42.1892 317.313 42.516 317.199 42.7792 316.989L59.6321 303.555V325.455C59.6314 326.044 59.3971 326.608 58.9805 327.024C58.5639 327.441 57.9991 327.675 57.4099 327.676Z" fill="#191919"/>
<path d="M191.715 258.326L200.404 258.398C201.283 258.405 202.153 258.22 202.953 257.857C203.754 257.494 204.465 256.96 205.038 256.294C205.611 255.627 206.032 254.844 206.271 253.998C206.51 253.153 206.561 252.265 206.422 251.398V251.398C206.271 250.464 205.904 249.579 205.349 248.813C204.794 248.047 204.067 247.422 203.226 246.989C202.385 246.555 201.454 246.325 200.508 246.316C199.562 246.307 198.627 246.521 197.778 246.939L189.585 250.98L161.56 257.226L149.553 244.958L142.657 256.31L158.858 268.819L191.715 258.326Z" fill="#FFB8B8"/>
<path d="M190.087 348.035L179.85 350.002C172.858 327.976 165.282 307.116 165.282 290.983C155.387 301.989 143.116 308.285 128.666 310.263L130.241 285.868L142.053 279.573L160.13 271.235C161.713 270.505 163.42 270.083 165.161 269.991V269.991C168.546 269.813 171.876 270.893 174.512 273.022C177.148 275.151 178.902 278.179 179.438 281.523L190.087 348.035Z" fill="#191919"/>
<path d="M141.068 307.312L136.988 310.411C135.234 311.743 133.161 312.594 130.976 312.878C128.791 313.163 126.57 312.872 124.532 312.033C112.846 303.28 104.544 305.862 97.0194 319.075C87.994 308.895 85.7673 294.193 93.8221 278.983L138.509 279.966L147.565 277.212L141.068 307.312Z" fill="#191919"/>
<path d="M126.186 352.899C123.625 353.686 120.869 353.548 118.4 352.508C115.931 351.469 113.907 349.594 112.683 347.213C108.667 343.678 105.278 338.617 102.339 332.463C100.23 327.948 98.4198 323.3 96.9187 318.549C94.885 312.272 98.2855 305.415 104.614 303.537C104.803 303.481 104.993 303.429 105.186 303.379C113.635 301.211 122.311 306.081 125.199 314.307L133.597 338.225C134.093 339.638 134.306 341.135 134.223 342.63C134.14 344.125 133.764 345.589 133.115 346.939C132.466 348.288 131.557 349.497 130.441 350.496C129.324 351.495 128.022 352.264 126.608 352.76C126.468 352.809 126.328 352.855 126.186 352.899Z" fill="#191919"/>
<path opacity="0.2" d="M100.909 329.739C100.909 329.739 110.752 340.756 112.721 347.051Z" fill="black"/>
<path d="M62.7342 277.746L59.4399 285.781C59.1066 286.594 58.9547 287.47 58.9949 288.348C59.0351 289.225 59.2664 290.084 59.6727 290.863C60.0789 291.642 60.6504 292.323 61.3472 292.859C62.044 293.395 62.8493 293.772 63.7071 293.965V293.965C64.6302 294.173 65.5892 294.161 66.5069 293.93C67.4246 293.7 68.2753 293.257 68.9907 292.638C69.706 292.019 70.2659 291.241 70.6254 290.366C70.9848 289.492 71.1338 288.545 71.0603 287.602L70.3505 278.499L74.9597 250.177L90.8168 243.594L82.8332 232.979L65.1928 243.363L62.7342 277.746Z" fill="#FFB8B8"/>
<path d="M141.462 278.983C130.15 297.972 107.598 305.325 88.2823 290.455C91.6801 279.299 102.65 248.464 95.5632 247.284C80.516 253.59 80.4942 238.784 77.6797 231.374L111.933 218.783L130.438 223.898L134.231 225.243C136.7 226.119 138.841 227.729 140.367 229.857C141.893 231.984 142.73 234.528 142.766 237.146C134.992 248.368 129.238 260.34 141.462 278.983Z" fill="#559FFF"/>
<path d="M145.793 263.638L132.21 252.424L136.738 226.259L155.242 245.932L145.793 263.638Z" fill="#559FFF"/>
<path d="M371.182 83.8909H369.241V30.7536C369.241 22.5972 365.999 14.775 360.227 9.00753C354.456 3.24011 346.629 0 338.467 0H225.813C217.652 0 209.824 3.24011 204.053 9.00753C198.282 14.775 195.04 22.5972 195.04 30.7536V322.27C195.04 330.426 198.282 338.248 204.053 344.016C209.824 349.783 217.652 353.023 225.813 353.023H338.466C346.628 353.023 354.456 349.783 360.227 344.016C365.998 338.248 369.24 330.426 369.24 322.27V121.715H371.182L371.182 83.8909Z" fill="#191919"/>
<path d="M339.709 8.0003H325.004C325.68 9.65726 325.939 11.4551 325.756 13.2354C325.573 15.0156 324.955 16.7237 323.957 18.2091C322.958 19.6944 321.609 20.9115 320.028 21.753C318.448 22.5945 316.685 23.0347 314.894 23.0346H250.356C248.566 23.0345 246.803 22.5943 245.223 21.7528C243.642 20.9114 242.293 19.6944 241.295 18.2093C240.296 16.7241 239.678 15.0163 239.495 13.2363C239.313 11.4562 239.571 9.65861 240.247 8.00176H226.51C220.415 8.00176 214.569 10.4215 210.259 14.7287C205.949 19.0359 203.528 24.8777 203.528 30.969V322.056C203.528 328.147 205.949 333.989 210.259 338.296C214.569 342.603 220.415 345.023 226.51 345.023H339.704C345.799 345.023 351.645 342.603 355.955 338.296C360.265 333.989 362.687 328.147 362.687 322.056V322.056V30.9675C362.687 24.8762 360.265 19.0344 355.955 14.7272C351.645 10.42 345.799 8.00029 339.704 8.00029H339.709L339.709 8.0003Z" fill="#272626"/>
<path d="M283.304 328.756C290.274 328.756 295.924 323.11 295.924 316.144C295.924 309.179 290.274 303.532 283.304 303.532C276.334 303.532 270.684 309.179 270.684 316.144C270.684 323.11 276.334 328.756 283.304 328.756Z" fill="#191919"/>
<path d="M232.106 199.51C230.913 199.51 229.943 200.617 229.943 201.978C229.943 203.338 230.913 204.446 232.106 204.446H334.108C335.301 204.446 336.272 203.338 336.272 201.978C336.272 200.617 335.301 199.51 334.108 199.51H232.106Z" fill="#F269BB"/>
<path d="M232.106 257.718C230.913 257.718 229.943 258.826 229.943 260.186C229.943 261.547 230.913 262.654 232.106 262.654H334.108C335.301 262.654 336.272 261.547 336.272 260.186C336.272 258.826 335.301 257.718 334.108 257.718H232.106Z" fill="#559FFF"/>
<path d="M232.106 214.318C230.913 214.318 229.943 215.425 229.943 216.786C229.943 218.146 230.913 219.254 232.106 219.254H275.998C277.191 219.254 278.162 218.146 278.162 216.786C278.162 215.425 277.191 214.318 275.998 214.318H232.106Z" fill="#1FFFA9"/>
<path d="M232.106 228.432C230.913 228.432 229.943 229.54 229.943 230.9C229.943 232.261 230.913 233.368 232.106 233.368H334.108C335.301 233.368 336.272 232.261 336.272 230.9C336.272 229.54 335.301 228.432 334.108 228.432H232.106Z" fill="#A259FF"/>
<path d="M232.106 243.24C230.913 243.24 229.943 244.348 229.943 245.708C229.943 247.069 230.913 248.176 232.106 248.176H275.998C277.191 248.176 278.162 247.069 278.162 245.708C278.162 244.348 277.191 243.24 275.998 243.24H232.106Z" fill="#FEE440"/>
<path d="M138.854 215.358H105.289C104.598 215.357 103.936 215.083 103.448 214.595C102.96 214.107 102.685 213.445 102.685 212.755V198.297C102.685 193.159 104.727 188.231 108.363 184.598C111.998 180.965 116.929 178.924 122.071 178.924C127.213 178.924 132.144 180.965 135.78 184.598C139.415 188.231 141.458 193.159 141.458 198.297V212.755C141.457 213.445 141.182 214.107 140.694 214.595C140.206 215.083 139.544 215.357 138.854 215.358V215.358Z" fill="#2F2E41"/>
<path d="M138.249 207.096C142.014 200.213 139.483 191.582 132.595 187.819C125.707 184.056 117.07 186.586 113.305 193.47C109.54 200.353 112.071 208.984 118.959 212.746C125.847 216.509 134.483 213.979 138.249 207.096Z" fill="#FFB6B6"/>
<path d="M146.044 199.743H125.52L125.31 196.798L124.257 199.743H121.097L120.68 193.907L118.594 199.743H112.479V199.454C112.484 195.391 114.101 191.495 116.976 188.622C119.851 185.749 123.749 184.133 127.815 184.128H130.708C134.774 184.133 138.672 185.749 141.547 188.622C144.422 191.495 146.04 195.391 146.044 199.454V199.743Z" fill="#2F2E41"/>
<path d="M125.352 218.057C125.198 218.057 125.043 218.043 124.891 218.016L109.863 215.366V190.545H126.406L125.997 191.022C120.298 197.664 124.591 208.433 127.658 214.262C127.884 214.688 127.984 215.17 127.948 215.652C127.912 216.134 127.741 216.595 127.454 216.984C127.213 217.316 126.897 217.586 126.532 217.773C126.167 217.96 125.762 218.057 125.352 218.057V218.057Z" fill="#2F2E41"/>
<path d="M175.388 340.606L193.93 340.605H193.931C197.065 340.606 200.07 341.85 202.286 344.064C204.502 346.279 205.747 349.282 205.748 352.414V352.798L175.389 352.799L175.388 340.606Z" fill="#191919"/>
<path d="M431.515 354H0.485393C0.356659 354 0.233197 353.949 0.142168 353.858C0.0511391 353.767 0 353.644 0 353.515C0 353.386 0.0511391 353.263 0.142168 353.172C0.233197 353.081 0.356659 353.03 0.485393 353.03H431.515C431.643 353.03 431.767 353.081 431.858 353.172C431.949 353.263 432 353.386 432 353.515C432 353.644 431.949 353.767 431.858 353.858C431.767 353.949 431.643 354 431.515 354Z" fill="#559FFF"/>
<g clip-path="url(#clip1_301_4)">
<path d="M270.718 120.165L269.642 120.871C268.177 121.778 266.731 122.828 265.221 123.707C264.296 124.287 263.228 124.594 262.137 124.594C261.047 124.594 259.978 124.287 259.054 123.707C255.663 121.75 252.235 119.839 248.917 117.764C244.462 114.994 241.101 110.765 239.404 105.795C238.321 102.828 237.856 99.6704 238.039 96.5168C238.308 91.37 240.216 86.4451 243.482 82.4639C245.987 79.3652 249.36 77.3991 252.597 75.2608C258.8 71.1896 265.013 67.1335 271.234 63.0925C273.301 61.6534 275.448 60.3315 277.663 59.1331C279.174 58.3463 280.86 57.9577 282.562 58.0037C284.264 58.0496 285.927 58.5287 287.393 59.3958C291.833 61.8603 296.164 64.515 300.559 67.0519C301.758 67.6992 302.76 68.6587 303.461 69.8292C304.161 70.9996 304.533 72.3378 304.538 73.7023C304.611 74.9917 304.342 76.2776 303.758 77.4285C303.173 78.5795 302.294 79.5542 301.21 80.2532C296.915 83.1163 292.574 85.9251 288.252 88.7519L278.414 95.1486C277.365 95.8282 276.316 96.4987 275.276 97.1873C274.498 97.7128 274.498 98.0933 275.276 98.5554C279.906 101.274 284.542 103.992 289.183 106.71C293.587 109.292 298.018 111.838 302.386 114.484C303.153 114.982 303.788 115.661 304.235 116.46C304.682 117.259 304.929 118.156 304.953 119.072C304.977 119.988 304.778 120.896 304.373 121.718C303.968 122.54 303.37 123.251 302.63 123.789C299.745 125.828 296.77 127.766 293.813 129.678L285.675 135.006L273.92 142.744C272.907 143.414 272.916 143.65 273.983 144.229C276.976 145.987 279.996 147.718 282.962 149.511C283.279 149.726 283.655 149.834 284.036 149.822C284.418 149.808 284.786 149.675 285.087 149.439C288.101 147.428 291.115 145.428 294.13 143.441L312.206 131.608C315.363 129.618 317.613 126.465 318.472 122.829C319.847 117.175 318.536 112.237 313.951 108.468C311.944 106.9 309.829 105.477 307.621 104.209C303.742 101.853 299.79 99.6064 295.866 97.3141C295.682 97.1768 295.507 97.0286 295.341 96.8701C296.119 96.3447 296.833 95.8463 297.566 95.3751C298.298 94.904 299.329 94.2788 300.188 93.6899C301.169 92.9283 302.362 92.492 303.602 92.4417C304.842 92.3913 306.067 92.7295 307.106 93.409C310.506 95.4114 314.005 97.2597 317.315 99.4071C322.2 102.519 325.718 107.379 327.153 112.998C328.053 116.272 328.239 119.703 327.696 123.055C327.253 126.248 326.137 129.31 324.422 132.038C322.707 134.766 320.432 137.096 317.749 138.875C311.103 143.369 304.348 147.7 297.674 152.076C295.369 153.589 293.017 155.056 290.766 156.606C289.502 157.55 288.056 158.221 286.519 158.576C284.983 158.932 283.39 158.965 281.841 158.672C280.23 158.294 278.689 157.664 277.274 156.805C273.268 154.55 269.317 152.193 265.365 149.838C264.228 149.156 263.281 148.196 262.616 147.048C261.95 145.899 261.586 144.6 261.559 143.272C261.532 141.944 261.842 140.631 262.461 139.456C263.079 138.281 263.985 137.283 265.094 136.555C269.935 133.432 274.767 130.279 279.589 127.096L290.621 119.848C291.634 119.177 291.652 118.942 290.621 118.335C285.075 115.109 279.541 111.877 274.019 108.64C270.61 106.646 267.192 104.68 263.801 102.66C262.987 102.151 262.314 101.446 261.843 100.608C261.371 99.771 261.117 98.8287 261.104 97.8676C261.091 96.9066 261.318 95.9574 261.765 95.1072C262.213 94.2571 262.866 93.533 263.665 93.0013L288.08 76.9461C289.446 76.04 290.793 75.1883 292.158 74.2279C293.063 73.5937 293.063 73.3219 292.086 72.7873C289.039 70.9752 285.982 69.2265 282.944 67.4144C282.668 67.2203 282.337 67.1224 282 67.1354C281.664 67.1485 281.341 67.272 281.081 67.4869C275.592 71.1111 270.067 74.7352 264.56 78.3595C260.943 80.7334 257.372 83.0981 253.8 85.4901C251.873 86.7443 250.27 88.4373 249.121 90.4309C247.973 92.4244 247.311 94.6619 247.19 96.9607C246.683 102.397 248.944 106.447 253.085 109.446C256.467 111.883 260.193 113.85 263.774 116.006C265.881 117.274 268.024 118.498 270.149 119.739C270.346 119.871 270.536 120.013 270.718 120.165Z" fill="#559FFF"/>
</g>
</g>
<defs>
<clipPath id="clip0_301_4">
<rect width="432" height="354" fill="white"/>
</clipPath>
<clipPath id="clip1_301_4">
<rect width="90" height="101" fill="white" transform="translate(238 58)"/>
</clipPath>
</defs>
</svg>
