<svg width="90" height="101" viewBox="0 0 90 101" fill="none" xmlns="http://www.w3.org/2000/svg">
<g clip-path="url(#clip0_301_36)">
<path d="M32.7184 62.1647L31.6424 62.8714C30.1775 63.7775 28.7306 64.8285 27.2205 65.7074C26.296 66.2868 25.2275 66.5942 24.137 66.5942C23.0466 66.5942 21.978 66.2868 21.0535 65.7074C17.6625 63.7503 14.2354 61.8385 10.9167 59.7637C6.46237 56.9936 3.10141 52.7648 1.40397 47.7947C0.321103 44.828 -0.143597 41.6704 0.0385481 38.5168C0.30804 33.37 2.21579 28.4451 5.48218 24.4639C7.98698 21.3652 11.3599 19.3991 14.5971 17.2608C20.8004 13.1896 27.0126 9.13347 33.2338 5.09252C35.3014 3.65337 37.4479 2.33149 39.6631 1.13308C41.174 0.346348 42.8598 -0.0423145 44.562 0.00365141C46.2641 0.0496172 47.9265 0.5287 49.3929 1.39583C53.8329 3.86029 58.1642 6.51502 62.5589 9.05194C63.758 9.69925 64.7604 10.6587 65.4607 11.8292C66.161 12.9996 66.533 14.3378 66.5376 15.7023C66.6114 16.9917 66.3422 18.2776 65.7576 19.4285C65.173 20.5795 64.2938 21.5542 63.21 22.2532C58.9148 25.1163 54.5744 27.9251 50.2519 30.7519L40.4137 37.1486C39.3647 37.8282 38.3158 38.4987 37.2759 39.1873C36.4982 39.7127 36.4982 40.0933 37.2759 40.5554C41.9057 43.2735 46.5415 45.9917 51.1834 48.7099C55.5872 51.2921 60.0179 53.8381 64.3856 56.4838C65.153 56.9823 65.7878 57.6605 66.2351 58.46C66.6824 59.2593 66.9287 60.1558 66.9527 61.072C66.9767 61.9881 66.7778 62.8963 66.373 63.7181C65.9683 64.54 65.37 65.2507 64.6297 65.789C61.7451 67.8275 58.7701 69.7665 55.8131 71.6783L47.6749 77.0058L35.9195 84.7435C34.9068 85.414 34.9158 85.6496 35.9828 86.2295C38.9759 87.9872 41.9961 89.7178 44.9621 91.5114C45.2786 91.726 45.6546 91.8343 46.0364 91.8216C46.418 91.8081 46.7859 91.6746 47.0871 91.4393C50.1013 89.4278 53.1155 87.4285 56.1297 85.4412L74.2058 73.6082C77.3626 71.618 79.613 68.4651 80.4723 64.8286C81.8467 59.1747 80.5356 54.2367 75.951 50.4676C73.9442 48.9 71.8289 47.4769 69.6212 46.2091C65.7419 43.8534 61.7903 41.6064 57.8659 39.3141C57.6823 39.1768 57.5071 39.0286 57.3413 38.8701C58.119 38.3447 58.8334 37.8463 59.5659 37.3751C60.2983 36.904 61.3292 36.2788 62.1882 35.6899C63.169 34.9283 64.3623 34.492 65.6022 34.4417C66.842 34.3913 68.0666 34.7295 69.1058 35.409C72.5058 37.4114 76.0053 39.2597 79.3148 41.4071C84.1999 44.5189 87.7179 49.3788 89.1532 54.9978C90.0531 58.2722 90.2385 61.7025 89.6957 65.055C89.2531 68.2481 88.1372 71.3103 86.4221 74.0379C84.7071 76.7655 82.4323 79.0961 79.7489 80.8747C73.1026 85.3687 66.3477 89.6996 59.6743 94.0761C57.3685 95.5893 55.0175 97.0565 52.7658 98.6058C51.5015 99.5499 50.0557 100.221 48.5195 100.576C46.9832 100.932 45.3902 100.965 43.8408 100.672C42.2302 100.294 40.6891 99.6645 39.2743 98.8051C35.2684 96.5497 31.3169 94.1933 27.3652 91.8379C26.2275 91.1561 25.2815 90.1957 24.6157 89.0475C23.95 87.8989 23.5865 86.5997 23.5594 85.2719C23.5322 83.9439 23.8424 82.6309 24.4606 81.456C25.079 80.2811 25.9851 79.2829 27.094 78.5552C31.9347 75.4323 36.7665 72.2793 41.5892 69.096L52.6211 61.8476C53.6339 61.1771 53.652 60.9416 52.6211 60.3345C47.075 57.1089 41.5409 53.8774 36.019 50.6398C32.6099 48.6465 29.1919 46.6803 25.8008 44.6598C24.9871 44.1509 24.3138 43.4455 23.8426 42.6082C23.3715 41.771 23.1175 40.8287 23.1041 39.8676C23.0906 38.9066 23.3179 37.9574 23.7654 37.1072C24.2129 36.2571 24.8661 35.533 25.6652 35.0013L50.0801 18.9461C51.4456 18.04 52.7929 17.1883 54.1584 16.2279C55.0626 15.5937 55.0626 15.3219 54.086 14.7873C51.0387 12.9752 47.9823 11.2265 44.944 9.41437C44.6684 9.22031 44.337 9.12237 44.0004 9.13545C43.6639 9.14853 43.3409 9.27198 43.0812 9.48688C37.5924 13.1111 32.0674 16.7353 26.5604 20.3595C22.9434 22.7334 19.3716 25.0981 15.7998 27.4901C13.8733 28.7443 12.2702 30.4373 11.1214 32.4309C9.97263 34.4244 9.31068 36.6619 9.18963 38.9608C8.68325 44.3971 10.9439 48.4471 15.0854 51.4462C18.4673 53.8834 22.1928 55.8496 25.7738 58.0059C27.8807 59.2744 30.0237 60.4976 32.1487 61.7389C32.346 61.8707 32.5361 62.0128 32.7184 62.1647Z" fill="#559FFF"/>
</g>
<defs>
<clipPath id="clip0_301_36">
<rect width="90" height="101" fill="white"/>
</clipPath>
</defs>
</svg>
