<svg width="100" height="112" viewBox="0 0 100 112" fill="none" xmlns="http://www.w3.org/2000/svg">
<g clip-path="url(#clip0_98_943)">
<path d="M36.3538 68.9351L35.1582 69.7188C33.5305 70.7236 31.9229 71.889 30.245 72.8636C29.2178 73.5062 28.0306 73.847 26.8189 73.847C25.6073 73.847 24.42 73.5062 23.3928 72.8636C19.625 70.6934 15.8171 68.5734 12.1297 66.2726C7.18041 63.2008 3.44601 58.5115 1.55997 53.0001C0.356781 49.7103 -0.159552 46.2088 0.0428312 42.7117C0.342267 37.0044 2.46199 31.5431 6.09131 27.1283C8.87442 23.6921 12.6221 21.5119 16.219 19.1407C23.1115 14.6261 30.014 10.1282 36.9265 5.64715C39.2238 4.05126 41.6088 2.58541 44.0701 1.25648C45.7489 0.384069 47.622 -0.046923 49.5133 0.00404908C51.4045 0.0550211 53.2517 0.586281 54.881 1.54785C59.8143 4.28072 64.6269 7.22458 69.5099 10.0378C70.8422 10.7556 71.956 11.8195 72.7341 13.1175C73.5122 14.4154 73.9256 15.8993 73.9307 17.4125C74.0127 18.8423 73.7136 20.2682 73.064 21.5445C72.4144 22.8208 71.4376 23.9017 70.2333 24.6768C65.4609 27.8517 60.6382 30.9664 55.8355 34.1011L44.9041 41.1945C43.7386 41.9481 42.5731 42.6916 41.4177 43.4552C40.5536 44.0379 40.5536 44.4599 41.4177 44.9723C46.5619 47.9865 51.7128 51.0007 56.8704 54.0149C61.7635 56.8784 66.6866 59.7017 71.5395 62.6355C72.3922 63.1883 73.0976 63.9404 73.5945 64.8269C74.0915 65.7133 74.3652 66.7074 74.3919 67.7234C74.4186 68.7393 74.1975 69.7464 73.7478 70.6577C73.2981 71.5691 72.6333 72.3572 71.8108 72.9541C68.6057 75.2147 65.3001 77.3648 62.0146 79.4848L52.9721 85.3926L39.9106 93.973C38.7853 94.7165 38.7953 94.9778 39.9809 95.6208C43.3065 97.57 46.6623 99.489 49.9579 101.478C50.3095 101.716 50.7273 101.836 51.1515 101.822C51.5756 101.807 51.9843 101.659 52.319 101.398C55.6681 99.1675 59.0172 96.9504 62.3663 94.7467L82.4509 81.6249C85.9585 79.418 88.4589 75.9217 89.4137 71.8891C90.9408 65.6195 89.484 60.1437 84.39 55.9641C82.1602 54.2257 79.8099 52.6477 77.3569 51.2418C73.0466 48.6295 68.6559 46.1378 64.2954 43.5958C64.0914 43.4436 63.8968 43.2792 63.7126 43.1035C64.5767 42.5208 65.3704 41.9682 66.1843 41.4457C66.9981 40.9232 68.1435 40.23 69.098 39.5769C70.1878 38.7324 71.5137 38.2486 72.8913 38.1928C74.2689 38.1369 75.6296 38.5119 76.7842 39.2654C80.562 41.4859 84.4503 43.5355 88.1276 45.9168C93.5554 49.3675 97.4643 54.7567 99.0591 60.9877C100.059 64.6187 100.265 68.4226 99.6619 72.1402C99.1701 75.6811 97.9302 79.0768 96.0246 82.1014C94.119 85.1261 91.5914 87.7105 88.6099 89.6828C81.2251 94.6663 73.7197 99.4689 66.3048 104.322C63.7428 106 61.1305 107.627 58.6287 109.345C57.2239 110.392 55.6174 111.136 53.9105 111.53C52.2036 111.925 50.4335 111.961 48.712 111.636C46.9224 111.217 45.2101 110.519 43.6381 109.566C39.1871 107.065 34.7965 104.452 30.4058 101.84C29.1417 101.084 28.0905 100.019 27.3508 98.7458C26.6111 97.4721 26.2072 96.0314 26.1771 94.5589C26.1469 93.0863 26.4915 91.6303 27.1785 90.3274C27.8655 89.0246 28.8723 87.9177 30.1044 87.1107C35.483 83.6477 40.8517 80.1513 46.2102 76.6213L58.4679 68.5835C59.5932 67.84 59.6133 67.5788 58.4679 66.9056C52.3056 63.3287 46.1566 59.7452 40.0211 56.155C36.2332 53.9446 32.4354 51.7643 28.6676 49.5237C27.7634 48.9594 27.0153 48.1772 26.4918 47.2487C25.9683 46.3203 25.6861 45.2754 25.6712 44.2096C25.6562 43.1439 25.9088 42.0914 26.406 41.1486C26.9032 40.2059 27.629 39.4029 28.5169 38.8133L55.6446 21.0095C57.1618 20.0048 58.6588 19.0603 60.176 17.9953C61.1807 17.292 61.1807 16.9906 60.0956 16.3978C56.7097 14.3883 53.3137 12.4492 49.9378 10.4397C49.6316 10.2245 49.2633 10.1159 48.8893 10.1304C48.5154 10.1449 48.1566 10.2818 47.868 10.5201C41.7693 14.539 35.6304 18.5579 29.5116 22.5769C25.4927 25.2093 21.524 27.8316 17.5553 30.4841C15.4148 31.8749 13.6336 33.7523 12.3571 35.963C11.0807 38.1736 10.3452 40.6548 10.2107 43.204C9.64806 49.2324 12.1599 53.7235 16.7616 57.0492C20.5192 59.7519 24.6587 61.9322 28.6375 64.3234C30.9785 65.73 33.3597 67.0864 35.7208 68.4629C35.94 68.6091 36.1512 68.7667 36.3538 68.9351Z" fill="white"/>
</g>
<defs>
<clipPath id="clip0_98_943">
<rect width="100" height="111.855" fill="white"/>
</clipPath>
</defs>
</svg>
